<?xml version="1.0" encoding="utf-8"?>
<!-- Generator: Adobe Illustrator 24.1.0, SVG Export Plug-In . SVG Version: 6.00 Build 0)  -->
<svg version="1.1" id="Layer_1" xmlns="http://www.w3.org/2000/svg" xmlns:xlink="http://www.w3.org/1999/xlink" x="0px" y="0px"
	 viewBox="0 0 533 202.2" style="enable-background:new 0 0 533 202.2;" xml:space="preserve">
<style type="text/css">
	.st0{fill:url(#SVGID_1_);}
	.st1{fill:#FFCC00;}
	.st2{fill:#00428B;}
</style>
<linearGradient id="SVGID_1_" gradientUnits="userSpaceOnUse" x1="-379.35" y1="686.6933" x2="-379.35" y2="522.0034" gradientTransform="matrix(1.2 0 0 -1.2 718.62 830.4901)">
	<stop  offset="0" style="stop-color:#0098C4"/>
	<stop  offset="1" style="stop-color:#C9E3F0"/>
</linearGradient>
<path class="st0" d="M19.3,110.4c0,0,4.5,7.6,4.5,7.6l7.9-4l1.1-0.6l36.4,81l3.5,7.8l8.2-2.7l19.7-6.5l8.6-2.9l-2.3-8.8l-10.4-40.1
	c2.9-2.2,5.8-4.6,8.4-7.2c-0.6,4.8-0.3,9.7,1,14.3c2.5,9.5,9.1,17.4,18,21.5c9.6,4.5,21.2,4.4,32-0.3c5.3-2.4,10.2-5.7,14.3-9.8
	l1.5,16l34.5-5.4v-31l72,35v-34.6c3-0.3,5.9-0.8,8.8-1.5c7.3-1.7,14.3-4.6,20.7-8.4l-3,18.6l38.8,5.7l2.1-14l10.1,18.7l6.2-12
	l2.3,19.6l44,7.3l-2.3-14.8c6.3,0.6,12.6-0.3,18.5-2.6c1.5-0.6,2.9-1.2,4.3-1.9l-1.8,15.8l29.3,3.7l0.2,12l30.6,9.4l39.8-120.6
	l-41.4-9.6l-3.9,16.3l-3.6-18l-48.7-10.2l0.4,27.1l7.3,1.6l-0.5,4.9c-0.1,0-0.1-0.1-0.2-0.1c-9.1-4.7-20.3-5.1-31-1
	c-3.5,1.4-6.8,3.2-9.9,5.4l-7.3-46.4l-32.4,0.3l-0.9,5.3l-34.1,0.3l-3.9,24l-2.8-3.5c-8.3-10.1-20.2-15.6-33.5-15.7l28.9-15.9
	L289,9.7l-36.4,42.5l6.3,7.7c-5.5,2.3-10.5,5.5-14.8,9.6L212.8,42l-11,21.1l0.4-20.2L153.4,59l1.2,26.3l8.3-2.2l1.2,13.3
	c-9.5-4.2-20.9-4-31.5,0.6c-3.1,1.4-6,3.1-8.8,5.1c1.8-8.1,1.4-16.2-1.7-23.3c-3.7-8.3-10-15.2-17.9-19.6c-5.7-3.7-12.2-5.9-19-6.5
	c-16.9-2.8-37.2,0.5-57.2,9.2C21.1,65,14.3,68.6,7.8,72.8L0,77.8l4.7,7.9 M222,104.8l9.3-9.1c-0.4,4.3-0.2,8.6,0.7,12.9L222,104.8z
	 M312.8,97.7l-6.4-5.7l6.8-7.3l2-2.2L312.8,97.7z"/>
<path class="st1" d="M491.4,57.5l-4,16.2l-3.6-18L435.1,45l0.4,27.1l7.3,1.6l-0.5,4.9c-0.1,0-0.1-0.1-0.2-0.1
	c-9.1-4.8-20.4-5.3-31-1.3c-3.5,1.3-6.8,3.1-9.9,5.3l-7.3-46.5h-32.5l-0.9,5.3h-34.1l-3.9,23.9l-2.8-3.5
	c-8.2-10.1-20.5-16-33.5-16.1l29-15.6L294.7,0l-36.5,42.1l6.3,7.7c-5.5,2.2-10.5,5.4-14.8,9.4l-31.3-27.8l-11,21l0.4-20.2l-49,15.6
	l1.2,26.3l8.3-2.2l1.2,13.3c-9.5-4.3-21-4.2-31.6,0.3c-3.1,1.3-6.1,3-8.8,5c1.8-8.1,1.4-16.1-1.7-23.3c-3.7-8.4-10-15.4-18-19.8
	c-5.7-3.7-12.2-6-19-6.8c-16.9-3-37.3,0.1-57.3,8.6c-7.1,3-13.9,6.5-20.4,10.6l-7.8,5l4.7,8l14.7,24.8c0,0,4.5,7.6,4.5,7.6l8-3.9
	l1-0.6l36.4,81.4l3.5,7.8l8.2-2.6l19.7-6.3l8.7-2.8l-2.3-8.8l-10.5-40.2c3-2.2,5.8-4.5,8.4-7.1c-0.6,4.8-0.3,9.7,1,14.3
	c2.6,9.5,9.1,17.4,18,21.7c9.6,4.6,21.2,4.6,32.1,0c5.3-2.3,10.2-5.6,14.3-9.6l1.5,16l34.5-5.1l-0.1-31l72.2,35.7V130
	c3-0.2,5.9-0.7,8.8-1.4c7.3-1.7,14.3-4.4,20.8-8.2l-3,18.5l38.9,6.1l2.1-14l10.2,18.8l6.2-12l2.3,19.6l44.1,7.8l-2.4-14.9
	c6.3,0.7,12.7-0.2,18.6-2.4c1.5-0.6,2.9-1.2,4.3-1.9l-1.8,15.8l29.4,4.1l0.2,12l30.6,9.6L533,67.5L491.4,57.5z M91.1,102.4
	c-1.4-4.7-4.5-14.9-4.5-14.9s-0.6-2.2-1.3-4.7c2.6-0.5,5.3-0.2,7.7,0.8c1.9,0.8,3.4,2.5,3.8,4.6C97.9,94.1,95.9,98.2,91.1,102.4z
	 M227.5,94.4l9.3-9c-0.4,4.3-0.2,8.6,0.7,12.9L227.5,94.4z M270.1,90.7c-3.3-5.9-1.1-13.4,4.9-16.6c3.2-1.7,7-2,10.3-0.7L270.1,90.7
	z M318.6,88.3l-6.4-5.7l6.8-7.2l2-2.2L318.6,88.3z"/>
<path class="st2" d="M491.4,57.5l-4,16.2l-3.6-18L435.1,45l0.4,27.1l7.3,1.6l-0.5,4.9c-0.1,0-0.1-0.1-0.2-0.1
	c-9.1-4.8-20.4-5.3-31-1.3c-3.5,1.3-6.8,3.1-9.9,5.3l-7.3-46.5h-32.5l-0.9,5.3h-34.1l-3.9,23.9l-2.8-3.5
	c-8.2-10.1-20.5-16-33.5-16.1l29-15.6L294.7,0l-36.5,42.1l6.3,7.7c-5.5,2.2-10.5,5.4-14.8,9.4l-31.3-27.8l-11,21l0.4-20.2l-49,15.6
	l1.2,26.3l8.3-2.2l1.2,13.3c-9.5-4.3-21-4.2-31.6,0.3c-3.1,1.3-6.1,3-8.8,5c1.8-8.1,1.4-16.1-1.7-23.3c-3.7-8.4-10-15.4-18-19.8
	c-5.7-3.7-12.2-6-19-6.8c-16.9-3-37.3,0.1-57.3,8.6c-7.1,3-13.9,6.5-20.4,10.6l-7.8,5l4.7,8l14.7,24.8c0,0,4.5,7.6,4.5,7.6l8-3.9
	l1-0.6l36.4,81.4l3.5,7.8l8.2-2.6l19.7-6.3l8.7-2.8l-2.3-8.8l-10.5-40.2c3-2.2,5.8-4.5,8.4-7.1c-0.6,4.8-0.3,9.7,1,14.3
	c2.6,9.5,9.1,17.4,18,21.7c9.6,4.6,21.2,4.6,32.1,0c5.3-2.3,10.2-5.6,14.3-9.6l1.5,16l34.5-5.1l-0.1-31l72.2,35.7V130
	c3-0.2,5.9-0.7,8.8-1.4c7.3-1.7,14.3-4.4,20.8-8.2l-3,18.5l38.9,6.1l2.1-14l10.2,18.8l6.2-12l2.3,19.6l44.1,7.8l-2.4-14.9
	c6.3,0.7,12.7-0.2,18.6-2.4c1.5-0.6,2.9-1.2,4.3-1.9l-1.8,15.8l29.4,4.1l0.2,12l30.6,9.6L533,67.5L491.4,57.5z M319,75.3l2-2.2
	l-2.5,15.2l-6.4-5.7L319,75.3z M293.2,13.4l10.7,14.5l-30.6,15.1l-2.1-3.2L293.2,13.4z M237.5,98.3l-10-3.9l9.3-9
	C236.4,89.7,236.6,94,237.5,98.3z M90.8,125.4l12.2,46.8l-19.8,6.3L42.7,88c-2.2,1.2-6.3,3.1-10,4.9L18,68.2
	c6.1-3.8,12.4-7.1,19-9.9c19.1-8.1,37.3-10.5,51.9-8c5.5,0.5,10.7,2.3,15.4,5.3c6.4,3.5,11.5,9,14.5,15.6
	C125.9,87.5,114.1,111,90.8,125.4z M174.4,136.9c-4.2,5.8-9.9,10.4-16.4,13.3c-17.1,7.3-34.2,0-38.8-16.2
	c-4.4-15.8,5.9-34.4,22.5-41.6c10.6-4.5,21.2-3.4,28.8,1.8c4.9,3.3,8.4,8.3,10,14c0.2,0.7,0.3,1.3,0.5,2c0.5,2.3,0.7,4.7,0.6,7
	C181.2,124.3,178.7,131.2,174.4,136.9z M274.7,150.2l-71.6-35.8l0.1,37.5l-18.5,2.5l-1.3-15.5c5.7-9.8,7.8-21.3,4.8-31.9
	c-1.6-5.7-4.6-10.8-8.8-15l-2.7-31.6l-8.3,2.2l-0.4-8l29.8-8.9l1.8,30.7l21.9-30.8L243,66.1l-30,31.6l28.1,11.1
	c3.3,6.1,8.1,11.2,14,14.7c5.9,3.6,12.6,5.8,19.6,6.4L274.7,150.2z M290.4,119.5c-2.2,0.5-4.4,0.9-6.6,1.1
	c-16.4,1.6-30.2-5.9-35.5-18.2c-0.6-1.5-1.1-3-1.5-4.6c-2.4-10.3-0.4-19.5,4.7-26.7c1.5-2.1,3.2-4,5.1-5.7
	c5.1-4.5,11.3-7.6,17.9-9.1c15.7-3.8,29.5,1,37.9,11.4l-29.8,31.8c2,0.4,5.2-0.2,7.6-0.7c7.1-1.7,11.1-5.5,14.6-9.6l11.9,10.7
	l3.6,3.3c-1.5,1.6-3.2,3.1-4.9,4.5C308.6,113.3,300.7,117,290.4,119.5L290.4,119.5z M403.1,153.7l-24.4-3.7l-6.5-43l-9.2,23.7
	l-13.7-29.6h-0.1l-5.4,34.3l-22.9-4l3.2-19.1c0.9-0.8,1.7-1.6,2.5-2.5l7.4-7.6l-7.2-6.5l7.6-45.6h23.1l5.8,31.6l6.5-36.6h16.5
	l6.9,44.6c-8.7,9.9-13,23.3-10,35.5c2.1,9.2,8.1,17.1,16.4,21.5c0.8,0.4,1.7,0.9,2.6,1.2L403.1,153.7z M427.5,140.5
	c-5.4,2.1-11.3,2.7-17,1.7c-3.5-0.7-6.9-2.1-9.8-4.2c-4.8-3.5-8.2-8.6-9.5-14.4c-1.8-7.4-0.1-15.3,3.8-22.2c2-3.5,4.6-6.6,7.6-9.3
	c3.4-3.1,7.3-5.5,11.6-7.2c10.1-3.8,20-2.5,27.1,2.6c2.6,1.8,4.7,4.2,6.4,6.9c1.3,2.2,2.3,4.5,2.9,7c2.1,8.9-0.4,18.4-6,26.1
	c-2.4,3.3-5.4,6.2-8.7,8.6C433.2,137.8,430.4,139.3,427.5,140.5L427.5,140.5z M487.3,176.5l-16.9-5.1l-1.5-62.4l-8.5,48.1l-18.5-2.9
	l1.3-13.9c12.1-10.2,18.5-26.3,15-40.8c-1.5-6.3-4.8-12-9.5-16.4l1.6-16.3l-7-1.9l0.5-8.7l31.8,6.4l10.7,50.8l11-45.5l24.2,5.4
	L487.3,176.5z"/>
<path class="st2" d="M436.2,96c0.2,0.7,0.3,1.5,0.3,2.3c-0.2,4.7-4.7,8.4-10,8.2s-9.5-4.2-9.3-9c0.2-4.4,4.1-7.9,9-8.2
	c-1-0.2-1.9-0.3-2.9-0.4c-8.9-0.4-16.1,5.9-16.5,13.8c-0.3,8.3,6.4,15.2,15.1,15.6s16.1-5.9,16.5-14.3
	C438.5,101.1,437.7,98.4,436.2,96z"/>
<path class="st2" d="M166.6,105.5c0,4.7-4.3,8.6-9.6,8.6s-9.6-3.8-9.6-8.6c0-4.4,3.8-8.1,8.7-8.5c-1-0.2-1.9-0.3-2.9-0.3
	c-8.9,0-15.9,6.6-15.9,14.4c0,8.4,7,14.9,15.8,14.9s15.9-6.6,15.9-14.9c0-2.8-0.9-5.6-2.6-7.9C166.5,104,166.6,104.8,166.6,105.5z"
	/>
<path class="st2" d="M270.5,89.5c-2.9-5.3-0.9-12,4.4-14.9c2.8-1.5,6.1-1.7,9.1-0.6L270.5,89.5z M272,76.8
	c-3.2,3.5-3.8,8.6-1.5,12.7L284.1,74C279.9,72.4,275.1,73.5,272,76.8z M291.6,71.6c-7-6.3-17.7-5.8-24.1,1.1
	c-6.3,7-5.8,17.7,1.1,24.1l0,0c0.6,0.5,1.2,1,1.8,1.4l22.3-25.4C292.4,72.4,292,72,291.6,71.6L291.6,71.6z M270.5,89.5
	c-2.9-5.3-0.9-12,4.5-14.9c2.8-1.5,6.1-1.7,9.1-0.6L270.5,89.5z"/>
<path class="st2" d="M103.3,86.8c-1.7-9.6-14.2-15-26.7-8.3l3.1,11l4.9,16.2l2.2,7.4C96.3,107.2,105.7,100,103.3,86.8z M90.9,101.4
	l-4.3-14c0,0.1-0.6-2.1-1.3-4.4c2.4-0.5,5-0.2,7.3,0.8c1.8,0.8,3.1,2.4,3.6,4.3C97.2,93.6,95.3,97.5,90.9,101.4z"/>
<path d="M501,179.2h4.2v0.6h-1.7v4.5h-0.7v-4.5H501V179.2z"/>
<path d="M505.8,184.3v-5.1h1l1.5,4.4l1.5-4.4h1v5.1H510v-3c0-0.1,0-0.3,0-0.5s0-0.5,0-0.8l-1.5,4.4h-0.7l-1.5-4.4v0.2
	c0,0.1,0,0.3,0,0.6s0,0.4,0,0.6v3L505.8,184.3z"/>
</svg>
